<svg aria-hidden="true" style="position: absolute; width: 0; height: 0; overflow: hidden;" version="1.1" xmlns="http://www.w3.org/2000/svg" xmlns:xlink="http://www.w3.org/1999/xlink">
<defs>
<symbol id="power" viewBox="0 0 32 32">
<path d="M10 0c-2 0-2 2-2 2v2h-2s-1.414-0.031-2.898 0.711c-1.477 0.734-3.102 2.617-3.102 5.289v16s-0.031 1.414 0.711 2.891c0.742 1.477 2.625 3.109 5.289 3.109h6c1.102 0 2-0.898 2-2 0-1.109-0.898-2-2-2h-6c-1.109 0-2-0.891-2-2v-16c0-1.109 0.891-2 2-2h12c1.109 0 2 0.891 2 2h4c0-2.672-1.625-4.555-3.102-5.289-1.484-0.742-2.898-0.711-2.898-0.711h-2v-2c0-2-2-2-2-2zM20 12c-3.867 0.547-5.445 5.789-6 8h-4c-1.102 0-2 0.891-2 2 0 1.102 0.898 2 2 2h4c0.555 2.203 2.133 7.445 6 8h4s2 0 2-2v-2h6v-4h-6v-4h6v-4h-6v-2s0-2-2-2z"></path>
</symbol>
</defs>
</svg>
