<?xml version="1.0" encoding="UTF-8" standalone="no"?>
<!-- Created with Inkscape (http://www.inkscape.org/) -->

<svg
   width="484.10785"
   height="97.04512"
   viewBox="0 0 128.08687 25.676521"
   version="1.1"
   id="svg1"
   inkscape:version="1.3.2 (091e20ef0f, 2023-11-25)"
   sodipodi:docname="adapter.svg"
   xmlns:inkscape="http://www.inkscape.org/namespaces/inkscape"
   xmlns:sodipodi="http://sodipodi.sourceforge.net/DTD/sodipodi-0.dtd"
   xmlns="http://www.w3.org/2000/svg"
   xmlns:svg="http://www.w3.org/2000/svg">
  <sodipodi:namedview
     id="namedview1"
     pagecolor="#ffffff"
     bordercolor="#000000"
     borderopacity="0.25"
     inkscape:showpageshadow="2"
     inkscape:pageopacity="0.0"
     inkscape:pagecheckerboard="0"
     inkscape:deskcolor="#d1d1d1"
     inkscape:document-units="mm"
     inkscape:zoom="2.1190784"
     inkscape:cx="197.96342"
     inkscape:cy="113.96464"
     inkscape:window-width="1920"
     inkscape:window-height="1121"
     inkscape:window-x="0"
     inkscape:window-y="0"
     inkscape:window-maximized="1"
     inkscape:current-layer="layer1" />
  <defs
     id="defs1" />
  <g
     inkscape:label="Layer 1"
     inkscape:groupmode="layer"
     id="layer1"
     transform="translate(-41.994336,-88.706213)">
    <path
       id="text1"
       style="font-size:28.2223px;font-family:'Fira sans';-inkscape-font-specification:'Fira sans';text-align:center;text-anchor:middle;stroke-width:0.264583"
       d="m 48.231681,88.706213 -6.237345,19.444807 h 2.709395 l 1.467611,-4.88239 h 7.365959 l 1.46761,4.88239 h 2.82205 L 51.618038,88.706213 Z m 20.065959,0 v 3.272669 h -4.212146 c -0.805126,0 -1.453141,0.648015 -1.453141,1.453141 0,0.805126 0.648015,1.453658 1.453141,1.453658 h 4.212146 v 6.595459 h -4.212146 c -0.805126,0 -1.453141,0.64802 -1.453141,1.45315 0,0.80511 0.648015,1.45365 1.453141,1.45365 h 4.212146 v 3.76308 h 4.656563 c 2.540003,0 4.694061,-0.73387 6.462655,-2.20141 1.352979,-1.12512 2.192347,-2.85641 2.521293,-5.18884 0.135232,0.081 0.271705,0.16807 0.409277,0.27027 1.224405,0.90969 2.535462,2.64981 2.32854,6.90242 -0.115338,2.37042 1.40935,4.2444 3.405994,5.17178 1.996644,0.92738 4.5009,1.23455 7.197494,1.23455 27.869074,0 58.631344,-0.0178 71.775464,0.0429 0.6488,0.003 1.27002,-0.11658 1.81022,-0.45475 0.54022,-0.33816 0.92163,-0.90148 1.07798,-1.43764 0.31268,-1.0723 0.0379,-1.99777 -0.26562,-2.8515 -0.19039,-0.53556 -0.4223,-1.02955 -0.65526,-1.48777 h 0.0289 l -0.23513,-0.39067 c -0.42906,-0.78968 -0.80615,-1.35393 -0.80615,-1.35393 l -0.006,0.004 -4.20181,-6.979937 c 1.41111,-0.43274 2.46438,-1.072595 3.16053,-1.919262 0.69614,-0.846667 1.04438,-1.947457 1.04438,-3.302124 0,-1.82504 -0.63025,-3.198236 -1.89084,-4.120162 -1.24178,-0.921926 -3.07642,-1.382862 -5.50354,-1.382862 h -5.10822 v 19.444807 h 2.68098 v -8.240839 h 3.01997 l 4.5377,8.030519 -0.0103,0.007 c 0,0 0.92228,1.40052 1.35341,2.61327 0.1952,0.54911 0.19664,0.94847 0.19533,1.05059 -0.0399,0.0118 -0.0287,0.0225 -0.21497,0.0217 -13.16618,-0.0608 -43.91884,-0.0429 -71.786834,-0.0429 -2.466474,0 -4.66673,-0.34118 -6.039425,-0.97875 -1.372694,-0.63758 -1.881093,-1.24587 -1.817977,-2.543 0.238706,-4.90585 -1.499813,-7.80539 -3.435966,-9.243881 C 83.337117,98.342296 82.678696,98.027 82.081812,97.8085 c -0.08345,-3.397878 -0.965265,-5.754278 -2.664954,-7.042464 -1.768594,-1.373483 -4.12027,-2.059823 -7.055383,-2.059823 z m 29.238009,0 -6.236829,19.444807 h 2.709395 l 1.467094,-4.88239 h 7.366471 l 1.4671,4.88239 h 2.82257 l -6.20893,-19.444807 z m 12.587341,0 v 19.444807 h 2.68098 v -7.14013 h 2.45514 c 2.2766,0 4.10164,-0.51755 5.47512,-1.552361 1.37349,-1.034816 2.06034,-2.615237 2.06034,-4.741313 0,-1.994371 -0.65855,-3.489879 -1.97559,-4.487065 -1.31704,-1.016 -3.17947,-1.523938 -5.58777,-1.523938 z m 13.29273,0 v 2.285649 h 5.53145 v 17.159158 h 2.68097 V 90.991862 h 5.39037 l 0.28267,-2.285649 z m 16.98966,0 v 19.444807 h 10.75284 v -2.14457 h -8.07186 v -6.660576 h 6.54792 v -2.145089 h -6.54792 v -6.35 h 7.53545 l 0.31058,-2.144572 z m -27.60141,2.088245 h 2.39882 c 1.524,0 2.69049,0.31032 3.49953,0.931209 0.82784,0.62089 1.24178,1.627673 1.24178,3.019971 0,1.56163 -0.41394,2.643206 -1.24178,3.24528 -0.80904,0.602074 -1.99423,0.903304 -3.55586,0.903304 h -2.34249 z m 45.38121,0 h 2.39933 c 1.59926,0 2.75614,0.272925 3.47111,0.818555 0.73378,0.526815 1.10071,1.392075 1.10071,2.596224 0,1.279407 -0.35732,2.210885 -1.07229,2.794144 -0.71496,0.564446 -1.77835,0.84646 -3.18947,0.84646 h -2.70939 z m -87.206567,0.05633 h 1.97559 c 1.222965,0 2.285841,0.18801 3.188953,0.564307 0.903112,0.357482 1.646579,1.091341 2.229838,2.201416 0.583259,1.09126 0.874882,2.662591 0.874882,4.713407 0,2.916302 -0.564547,4.929352 -1.693437,6.039422 -1.12889,1.11008 -2.596609,1.66501 -4.402832,1.66501 h -2.172994 z m -21.110339,0.08475 3.019971,10.160102 h -6.067847 z m 49.304484,0 3.019452,10.160102 h -6.067328 z" />
  </g>
</svg>
